<?xml version="1.0" ?><svg width="129" height="125" viewBox="0 0 129 125" xmlns="http://www.w3.org/2000/svg" xmlns:xlink="http://www.w3.org/1999/xlink"><svg viewBox="0 0 24 24" width="24" height="24" id="boundries" x="105" xmlns="http://www.w3.org/2000/svg"><path d="M24 10V7h-1V5l-2-2-2 2v2h-2V5l-2-2-2 2v2h-1.164l.237-1.768L10.353 3 8.107 4.71 7.801 7H5V5L3 3 1 5v2H0v3h1v4H0v3h1v4h4v-4h1.465L6 20.479 9.965 21l.535-4H13v4h4v-4h2v4h4v-4h1v-3h-1v-4h1zM5 14v-4h2.4l-.534 4H5zm5.9 0l.535-4H13v4h-2.1zm8.1 0h-2v-4h2v4z" fill="#F47920"/><g fill="#FFF"><path opacity=".2" d="M19 5v16h2V3z"/><path opacity=".1" d="M21 3l2 2v16h-2z"/><path opacity=".2" d="M13 5v16h2V3z"/><path opacity=".1" d="M15 3l2 2v16h-2z"/><path opacity=".2" d="M1 5v16h2V3z"/><path opacity=".1" d="M3 3l2 2v16H3z"/><path opacity=".2" d="M10.353 3L8.107 4.71 6 20.48l1.999.262z"/><path opacity=".1" d="M10.353 3l1.72 2.232L9.965 21l-1.982-.26z"/></g></svg><svg viewBox="0 0 105 125" width="105" height="125" id="xbn-roadmap" xmlns="http://www.w3.org/2000/svg"><style>.bst0{opacity:.9}.bst1{fill:#fff}.bst2{fill:none;stroke:#fff;stroke-width:3;stroke-miterlimit:10}</style><g class="bst0"><path class="bst1" d="M42.9 76.4V48.6h12.4c4.8 0 7.8 2.9 7.8 7.1 0 3.5-2.3 5.8-4.9 6.4 3 .5 5.4 3.5 5.4 6.8 0 4.5-3 7.5-8 7.5H42.9zm16.5-20.2c0-2.5-1.7-4.5-4.8-4.5h-8.3v9h8.3c3.2-.1 4.8-2 4.8-4.5zm.6 12.3c0-2.5-1.8-4.8-5.1-4.8h-8.5v9.6h8.5c3.2 0 5.1-1.8 5.1-4.8z"/></g><g class="bst0"><path class="bst1" d="M87.1 76.4L70.9 54.2v22.2h-3.5V48.6h3.5l16 21.7V48.6h3.5v27.8h-3.3z"/></g><path class="bst1" d="M29.9 62.1l10.2-13.5h-4.2l-8.2 11.1-8.3-11.1h-4.2l10.2 13.5-10.8 14.3 13.1-11.8 13.1 11.8z"/><path class="bst1" d="M31.7 70.3l-4-3.6-4 3.6zM22.2 71.6l-3.4 3h17.8l-3.4-3z"/><path class="bst2" d="M102.5 91.4V33.6l-50-28.8-50 28.8v57.8l50 28.8z"/></svg></svg>