<?xml version="1.0" encoding="utf-8"?>
<!-- Generator: Adobe Illustrator 21.1.0, SVG Export Plug-In . SVG Version: 6.00 Build 0)  -->
<svg version="1.0" id="Layer_1" xmlns="http://www.w3.org/2000/svg" xmlns:xlink="http://www.w3.org/1999/xlink" x="0px" y="0px"
	 viewBox="0 0 172.1 76.3" style="enable-background:new 0 0 172.1 76.3;" xml:space="preserve">
<style type="text/css">
	.st0{fill:#F7C627;}
	.st1{fill:none;stroke:#F7C627;stroke-width:0.16;stroke-miterlimit:10;}
	.st2{fill:#FFFFFF;}
</style>
<g>
	<path class="st0" d="M101.1,72.6c0,0.8-0.3,1.4-0.8,1.9c-0.5,0.5-1.2,0.8-1.9,0.8h-0.7c-0.8,0-1.4-0.3-1.9-0.8
		C95.2,74,95,73.4,95,72.6v-7.8c0,0,0,0,0.1,0h0.9c0,0,0,0,0,0v7.8c0,0.5,0.2,0.9,0.5,1.2c0.3,0.3,0.7,0.5,1.2,0.5h0.7
		c0.5,0,0.9-0.2,1.2-0.5c0.3-0.3,0.5-0.7,0.5-1.2v-7.8c0,0,0,0,0.1,0h0.9c0,0,0,0,0,0V72.6z"/>
	<path class="st1" d="M101.1,72.6c0,0.8-0.3,1.4-0.8,1.9c-0.5,0.5-1.2,0.8-1.9,0.8h-0.7c-0.8,0-1.4-0.3-1.9-0.8
		C95.2,74,95,73.4,95,72.6v-7.8c0,0,0,0,0.1,0h0.9c0,0,0,0,0,0v7.8c0,0.5,0.2,0.9,0.5,1.2c0.3,0.3,0.7,0.5,1.2,0.5h0.7
		c0.5,0,0.9-0.2,1.2-0.5c0.3-0.3,0.5-0.7,0.5-1.2v-7.8c0,0,0,0,0.1,0h0.9c0,0,0,0,0,0V72.6z"/>
	<path class="st0" d="M103.1,63.3C103.1,63.4,103.1,63.4,103.1,63.3l-1,0c0,0-0.1,0-0.1,0v-2.6c0,0,0-0.1,0.1-0.1h0.9c0,0,0,0,0,0.1
		V63.3z M103.1,75.3C103.1,75.3,103.1,75.4,103.1,75.3l-1,0.1c0,0-0.1,0-0.1-0.1V64.9c0,0,0-0.1,0.1-0.1h0.9c0,0,0,0,0,0.1V75.3z"/>
	<path class="st1" d="M103.1,63.3C103.1,63.4,103.1,63.4,103.1,63.3l-1,0c0,0-0.1,0-0.1,0v-2.6c0,0,0-0.1,0.1-0.1h0.9c0,0,0,0,0,0.1
		V63.3z M103.1,75.3C103.1,75.3,103.1,75.4,103.1,75.3l-1,0.1c0,0-0.1,0-0.1-0.1V64.9c0,0,0-0.1,0.1-0.1h0.9c0,0,0,0,0,0.1V75.3z"/>
	<path class="st0" d="M106.9,75.3C106.9,75.3,106.9,75.4,106.9,75.3c-0.8,0-1.4-0.2-2-0.8c-0.5-0.5-0.8-1.2-0.8-1.9V60.8
		c0,0,0-0.1,0.1-0.1h0.9c0,0,0,0,0,0.1v11.9c0,0.5,0.2,0.9,0.5,1.2s0.7,0.5,1.2,0.5c0,0,0.1,0,0.1,0.1V75.3z"/>
	<path class="st1" d="M106.9,75.3C106.9,75.3,106.9,75.4,106.9,75.3c-0.8,0-1.4-0.2-2-0.8c-0.5-0.5-0.8-1.2-0.8-1.9V60.8
		c0,0,0-0.1,0.1-0.1h0.9c0,0,0,0,0,0.1v11.9c0,0.5,0.2,0.9,0.5,1.2s0.7,0.5,1.2,0.5c0,0,0.1,0,0.1,0.1V75.3z"/>
	<path class="st0" d="M114.1,75.3C114.1,75.3,114.1,75.4,114.1,75.3l-1,0.1c0,0-0.1,0-0.1-0.1v-0.5c0,0,0-0.1,0-0.1c0,0,0,0,0,0
		c-0.5,0.4-1.1,0.6-1.7,0.6h-0.7c-0.8,0-1.4-0.3-1.9-0.8c-0.5-0.5-0.8-1.2-0.8-1.9v-5.1c0-0.8,0.3-1.4,0.8-1.9
		c0.5-0.5,1.2-0.8,1.9-0.8h0.7c0.5,0,0.9,0.1,1.3,0.4c0.1,0.1,0.2,0.1,0.3,0c0.1-0.1,0.1-0.1,0.1-0.2v-4.2c0,0,0,0,0.1,0h0.9
		c0,0,0,0,0,0V75.3z M113.1,72.6v-5.1c0-0.5-0.2-0.9-0.5-1.2c-0.3-0.3-0.7-0.5-1.2-0.5h-0.7c-0.5,0-0.9,0.2-1.2,0.5
		c-0.3,0.3-0.5,0.7-0.5,1.2v5.1c0,0.5,0.2,0.9,0.5,1.2c0.3,0.3,0.7,0.5,1.2,0.5h0.7c0.5,0,0.9-0.2,1.2-0.5
		C112.9,73.5,113.1,73.1,113.1,72.6"/>
	<path class="st1" d="M114.1,75.3C114.1,75.3,114.1,75.4,114.1,75.3l-1,0.1c0,0-0.1,0-0.1-0.1v-0.5c0,0,0-0.1,0-0.1c0,0,0,0,0,0
		c-0.5,0.4-1.1,0.6-1.7,0.6h-0.7c-0.8,0-1.4-0.3-1.9-0.8c-0.5-0.5-0.8-1.2-0.8-1.9v-5.1c0-0.8,0.3-1.4,0.8-1.9
		c0.5-0.5,1.2-0.8,1.9-0.8h0.7c0.5,0,0.9,0.1,1.3,0.4c0.1,0.1,0.2,0.1,0.3,0c0.1-0.1,0.1-0.1,0.1-0.2v-4.2c0,0,0,0,0.1,0h0.9
		c0,0,0,0,0,0V75.3z M113.1,72.6v-5.1c0-0.5-0.2-0.9-0.5-1.2c-0.3-0.3-0.7-0.5-1.2-0.5h-0.7c-0.5,0-0.9,0.2-1.2,0.5
		c-0.3,0.3-0.5,0.7-0.5,1.2v5.1c0,0.5,0.2,0.9,0.5,1.2c0.3,0.3,0.7,0.5,1.2,0.5h0.7c0.5,0,0.9-0.2,1.2-0.5
		C112.9,73.5,113.1,73.1,113.1,72.6z"/>
	<path class="st0" d="M125.2,60.8v14.5c0,0,0,0.1-0.1,0.1H124c0,0,0,0-0.1,0L119.7,64c0-0.1-0.1-0.1-0.2-0.1c-0.1,0-0.2,0.1-0.2,0.2
		v11.2c0,0,0,0.1,0,0.1h-0.9c0,0-0.1,0-0.1-0.1V60.8c0,0,0,0,0.1,0h1.1c0,0,0.1,0,0.1,0l4.3,11.3c0,0.1,0.1,0.1,0.2,0.1
		c0.1,0,0.2-0.1,0.2-0.2V60.8c0,0,0,0,0.1,0L125.2,60.8C125.2,60.7,125.2,60.8,125.2,60.8"/>
	<path class="st1" d="M125.2,60.8v14.5c0,0,0,0.1-0.1,0.1H124c0,0,0,0-0.1,0L119.7,64c0-0.1-0.1-0.1-0.2-0.1c-0.1,0-0.2,0.1-0.2,0.2
		v11.2c0,0,0,0.1,0,0.1h-0.9c0,0-0.1,0-0.1-0.1V60.8c0,0,0,0,0.1,0h1.1c0,0,0.1,0,0.1,0l4.3,11.3c0,0.1,0.1,0.1,0.2,0.1
		c0.1,0,0.2-0.1,0.2-0.2V60.8c0,0,0,0,0.1,0L125.2,60.8C125.2,60.7,125.2,60.8,125.2,60.8z"/>
	<path class="st0" d="M132.4,72.5c0,0.8-0.3,1.5-0.8,2c-0.5,0.6-1.2,0.8-2,0.8H129c-0.8,0-1.4-0.3-1.9-0.8c-0.5-0.5-0.8-1.2-0.8-1.9
		v-5.1c0-0.8,0.3-1.4,0.8-1.9c0.5-0.5,1.2-0.8,1.9-0.8h0.7c0.8,0,1.4,0.3,2,0.8c0.5,0.6,0.8,1.2,0.8,2v2.4c0,0,0,0.1,0,0.1h-4.6
		c-0.3,0-0.5,0.2-0.5,0.5v1.9c0,0.5,0.2,0.9,0.5,1.2c0.3,0.3,0.7,0.5,1.2,0.5h0.7c0.5,0,0.9-0.2,1.2-0.6c0.3-0.4,0.5-0.8,0.5-1.3
		v-0.8c0,0,0,0,0.1,0h0.9c0,0,0,0,0,0V72.5z M131.4,68.7v-1c0-0.5-0.2-0.9-0.5-1.3c-0.3-0.4-0.7-0.6-1.2-0.6H129
		c-0.5,0-0.9,0.2-1.2,0.5c-0.3,0.3-0.5,0.7-0.5,1.2v1.2c0,0.3,0.2,0.5,0.5,0.5h3.2C131.2,69.2,131.4,69,131.4,68.7"/>
	<path class="st1" d="M132.4,72.5c0,0.8-0.3,1.5-0.8,2c-0.5,0.6-1.2,0.8-2,0.8H129c-0.8,0-1.4-0.3-1.9-0.8c-0.5-0.5-0.8-1.2-0.8-1.9
		v-5.1c0-0.8,0.3-1.4,0.8-1.9c0.5-0.5,1.2-0.8,1.9-0.8h0.7c0.8,0,1.4,0.3,2,0.8c0.5,0.6,0.8,1.2,0.8,2v2.4c0,0,0,0.1,0,0.1h-4.6
		c-0.3,0-0.5,0.2-0.5,0.5v1.9c0,0.5,0.2,0.9,0.5,1.2c0.3,0.3,0.7,0.5,1.2,0.5h0.7c0.5,0,0.9-0.2,1.2-0.6c0.3-0.4,0.5-0.8,0.5-1.3
		v-0.8c0,0,0,0,0.1,0h0.9c0,0,0,0,0,0V72.5z M131.4,68.7v-1c0-0.5-0.2-0.9-0.5-1.3c-0.3-0.4-0.7-0.6-1.2-0.6H129
		c-0.5,0-0.9,0.2-1.2,0.5c-0.3,0.3-0.5,0.7-0.5,1.2v1.2c0,0.3,0.2,0.5,0.5,0.5h3.2C131.2,69.2,131.4,69,131.4,68.7z"/>
	<path class="st0" d="M139,65.8C139,65.8,138.9,65.8,139,65.8l-2.7,0.1c-0.3,0-0.5,0.2-0.5,0.5v6.3c0,0.5,0.2,0.9,0.5,1.2
		c0.3,0.3,0.7,0.5,1.2,0.5h1.4c0,0,0,0,0,0.1v0.9c0,0,0,0,0,0h-1.4c-0.8,0-1.4-0.3-2-0.8c-0.5-0.5-0.8-1.2-0.8-1.9v-6.3
		c0-0.3-0.2-0.5-0.5-0.5h-0.8c0,0-0.1,0-0.1-0.1v-0.9c0,0,0-0.1,0.1-0.1h0.8c0.3,0,0.5-0.2,0.5-0.5v-3.5c0,0,0,0,0.1,0h0.9
		c0,0,0,0,0,0v3.5c0,0.3,0.2,0.5,0.5,0.5h2.6c0,0,0.1,0,0.1,0.1V65.8z"/>
	<path class="st1" d="M139,65.8C139,65.8,138.9,65.8,139,65.8l-2.7,0.1c-0.3,0-0.5,0.2-0.5,0.5v6.3c0,0.5,0.2,0.9,0.5,1.2
		c0.3,0.3,0.7,0.5,1.2,0.5h1.4c0,0,0,0,0,0.1v0.9c0,0,0,0,0,0h-1.4c-0.8,0-1.4-0.3-2-0.8c-0.5-0.5-0.8-1.2-0.8-1.9v-6.3
		c0-0.3-0.2-0.5-0.5-0.5h-0.8c0,0-0.1,0-0.1-0.1v-0.9c0,0,0-0.1,0.1-0.1h0.8c0.3,0,0.5-0.2,0.5-0.5v-3.5c0,0,0,0,0.1,0h0.9
		c0,0,0,0,0,0v3.5c0,0.3,0.2,0.5,0.5,0.5h2.6c0,0,0.1,0,0.1,0.1V65.8z"/>
	<path class="st0" d="M151,64.9l-2.5,10.4c0,0,0,0.1-0.1,0.1h-1c0,0-0.1,0-0.1-0.1l-1.8-7.5c0-0.1-0.1-0.1-0.2-0.1
		c-0.1,0-0.2,0-0.2,0.1l-1.8,7.5c0,0,0,0.1-0.1,0.1h-0.9c0,0-0.1,0-0.1-0.1l-2.5-10.4c0,0,0-0.1,0.1-0.1h1c0,0,0.1,0,0.1,0.1
		l1.7,7.2c0,0.1,0.1,0.1,0.2,0.1c0.1,0,0.2,0,0.2-0.1l1.7-7.2c0,0,0-0.1,0.1-0.1h1.1c0,0,0.1,0,0.1,0.1l1.7,7.2
		c0,0.1,0.1,0.1,0.2,0.1c0.1,0,0.2,0,0.2-0.2l1.7-7.2c0,0,0-0.1,0.1-0.1L151,64.9C151,64.8,151,64.8,151,64.9"/>
	<path class="st1" d="M151,64.9l-2.5,10.4c0,0,0,0.1-0.1,0.1h-1c0,0-0.1,0-0.1-0.1l-1.8-7.5c0-0.1-0.1-0.1-0.2-0.1
		c-0.1,0-0.2,0-0.2,0.1l-1.8,7.5c0,0,0,0.1-0.1,0.1h-0.9c0,0-0.1,0-0.1-0.1l-2.5-10.4c0,0,0-0.1,0.1-0.1h1c0,0,0.1,0,0.1,0.1
		l1.7,7.2c0,0.1,0.1,0.1,0.2,0.1c0.1,0,0.2,0,0.2-0.1l1.7-7.2c0,0,0-0.1,0.1-0.1h1.1c0,0,0.1,0,0.1,0.1l1.7,7.2
		c0,0.1,0.1,0.1,0.2,0.1c0.1,0,0.2,0,0.2-0.2l1.7-7.2c0,0,0-0.1,0.1-0.1L151,64.9C151,64.8,151,64.8,151,64.9z"/>
	<path class="st0" d="M158.2,72.6c0,0.8-0.3,1.4-0.8,1.9c-0.5,0.5-1.2,0.8-1.9,0.8h-0.7c-0.8,0-1.4-0.3-1.9-0.8
		c-0.5-0.5-0.8-1.2-0.8-1.9v-5.1c0-0.8,0.3-1.4,0.8-1.9c0.5-0.5,1.2-0.8,1.9-0.8h0.7c0.8,0,1.4,0.3,1.9,0.8c0.5,0.5,0.8,1.2,0.8,1.9
		V72.6z M157.2,72.6v-5.1c0-0.5-0.2-0.9-0.5-1.2c-0.3-0.3-0.7-0.5-1.2-0.5h-0.7c-0.5,0-0.9,0.2-1.2,0.5c-0.3,0.3-0.5,0.7-0.5,1.2
		v5.1c0,0.5,0.2,0.9,0.5,1.2c0.3,0.3,0.7,0.5,1.2,0.5h0.7c0.5,0,0.9-0.2,1.2-0.5C157,73.5,157.2,73.1,157.2,72.6"/>
	<path class="st1" d="M158.2,72.6c0,0.8-0.3,1.4-0.8,1.9c-0.5,0.5-1.2,0.8-1.9,0.8h-0.7c-0.8,0-1.4-0.3-1.9-0.8
		c-0.5-0.5-0.8-1.2-0.8-1.9v-5.1c0-0.8,0.3-1.4,0.8-1.9c0.5-0.5,1.2-0.8,1.9-0.8h0.7c0.8,0,1.4,0.3,1.9,0.8c0.5,0.5,0.8,1.2,0.8,1.9
		V72.6z M157.2,72.6v-5.1c0-0.5-0.2-0.9-0.5-1.2c-0.3-0.3-0.7-0.5-1.2-0.5h-0.7c-0.5,0-0.9,0.2-1.2,0.5c-0.3,0.3-0.5,0.7-0.5,1.2
		v5.1c0,0.5,0.2,0.9,0.5,1.2c0.3,0.3,0.7,0.5,1.2,0.5h0.7c0.5,0,0.9-0.2,1.2-0.5C157,73.5,157.2,73.1,157.2,72.6z"/>
	<path class="st0" d="M165.4,67.5C165.4,67.6,165.4,67.6,165.4,67.5l-1,0.1c0,0-0.1,0-0.1-0.1c0-0.5-0.2-0.9-0.5-1.2
		c-0.3-0.3-0.7-0.5-1.2-0.5h-0.7c-0.5,0-0.9,0.2-1.2,0.5c-0.3,0.3-0.5,0.7-0.5,1.2v7.8c0,0,0,0,0,0h-0.9c0,0-0.1,0-0.1,0V64.9
		c0,0,0,0,0.1,0h0.9c0,0,0,0,0,0v0.5c0,0.1,0,0.1,0.1,0c0.5-0.4,1-0.6,1.7-0.6h0.7c0.7,0,1.4,0.3,1.9,0.8
		C165.1,66.1,165.4,66.8,165.4,67.5"/>
	<path class="st1" d="M165.4,67.5C165.4,67.6,165.4,67.6,165.4,67.5l-1,0.1c0,0-0.1,0-0.1-0.1c0-0.5-0.2-0.9-0.5-1.2
		c-0.3-0.3-0.7-0.5-1.2-0.5h-0.7c-0.5,0-0.9,0.2-1.2,0.5c-0.3,0.3-0.5,0.7-0.5,1.2v7.8c0,0,0,0,0,0h-0.9c0,0-0.1,0-0.1,0V64.9
		c0,0,0,0,0.1,0h0.9c0,0,0,0,0,0v0.5c0,0.1,0,0.1,0.1,0c0.5-0.4,1-0.6,1.7-0.6h0.7c0.7,0,1.4,0.3,1.9,0.8
		C165.1,66.1,165.4,66.8,165.4,67.5z"/>
	<path class="st0" d="M172,75.3C172,75.3,172,75.4,172,75.3l-1,0.1c0,0,0,0-0.1,0l-1.8-4.6c-0.1-0.3-0.3-0.5-0.7-0.5h-0.6
		c-0.3,0-0.5,0.2-0.5,0.5v4.6c0,0,0,0.1-0.1,0.1h-0.9c0,0-0.1,0-0.1-0.1V60.8c0,0,0-0.1,0.1-0.1h0.9c0,0,0.1,0,0.1,0.1v7.9
		c0,0.3,0.2,0.5,0.5,0.5h0.6c0.3,0,0.6-0.2,0.7-0.5l1.5-3.9c0,0,0-0.1,0.1-0.1h1c0,0,0.1,0,0,0.1l-1.6,4.4c-0.1,0.3-0.1,0.6,0,0.9
		L172,75.3z"/>
	<path class="st1" d="M172,75.3C172,75.3,172,75.4,172,75.3l-1,0.1c0,0,0,0-0.1,0l-1.8-4.6c-0.1-0.3-0.3-0.5-0.7-0.5h-0.6
		c-0.3,0-0.5,0.2-0.5,0.5v4.6c0,0,0,0.1-0.1,0.1h-0.9c0,0-0.1,0-0.1-0.1V60.8c0,0,0-0.1,0.1-0.1h0.9c0,0,0.1,0,0.1,0.1v7.9
		c0,0.3,0.2,0.5,0.5,0.5h0.6c0.3,0,0.6-0.2,0.7-0.5l1.5-3.9c0,0,0-0.1,0.1-0.1h1c0,0,0.1,0,0,0.1l-1.6,4.4c-0.1,0.3-0.1,0.6,0,0.9
		L172,75.3z"/>
	<path class="st2" d="M0,49c0.2,0,0.5-0.1,0.7-0.3C1,48.6,1.2,48.3,1.5,48c0.2-0.3,0.4-0.6,0.6-1c0.2-0.4,0.4-0.8,0.5-1.2l10.2-19.1
		L4.4,12.5c-0.6-0.9-1.2-1.6-1.5-2.1C2.6,10,2.1,9.8,1.4,9.8V0h17.1v6.5c0,0.8,0.2,1.7,0.5,2.6c0.3,0.9,0.7,1.9,1.2,2.8
		c0.5,0.9,1,1.8,1.5,2.7c0.5,0.9,0.9,1.7,1.3,2.5c0.4-0.8,0.9-1.6,1.4-2.5c0.5-0.9,1-1.8,1.5-2.7c0.5-0.9,0.9-1.9,1.2-2.8
		c0.3-0.9,0.5-1.8,0.5-2.6V0h14.6v9.8c-0.6,0-1.1,0.2-1.5,0.6c-0.4,0.4-0.9,1.1-1.5,2.2l-9.1,16.6l8.8,15.5c0.3,0.5,0.7,1,1,1.5
		c0.3,0.5,0.7,1,1,1.4c0.4,0.4,0.7,0.8,1,1.1c0.3,0.3,0.7,0.4,0.9,0.4v8.9H24.8v-7.4c0-1-0.2-2.1-0.5-3c-0.3-1-0.7-2-1.2-2.9
		c-0.5-1-1-1.9-1.6-2.9c-0.6-0.9-1.1-1.9-1.6-2.8c-0.5,0.9-1,1.8-1.6,2.7c-0.6,0.9-1.1,1.9-1.6,2.9c-0.5,1-0.9,2-1.3,3
		c-0.3,1-0.5,2-0.5,3.1v7.4H0V49z"/>
	<path class="st2" d="M49.2,64.6c0.6,0,1.2-0.2,1.6-0.5c0.4-0.3,0.7-0.8,1-1.4c0.2-0.6,0.4-1.3,0.5-2.1c0.1-0.8,0.1-1.7,0.1-2.7
		V18.6c0-2-0.2-3.5-0.6-4.4c-0.4-0.9-1.3-1.3-2.6-1.3V0h24.1c2.9,0,5.6,0.4,8,1.1c2.4,0.7,4.4,1.9,6.2,3.5c1.7,1.6,3,3.8,4,6.4
		s1.4,5.8,1.4,9.6c0,4.4-0.7,8-2.2,10.7c-1.5,2.7-3.7,4.6-6.6,5.7c6.6,2.5,9.9,8.6,9.9,18.3c0,4-0.3,7.4-1,10.1
		c-0.7,2.7-1.8,4.9-3.3,6.5s-3.4,2.8-5.8,3.5c-2.4,0.7-5.3,1-8.7,1H49.2V64.6z M66.2,30.1h6c2.4,0,4.1-0.6,5.2-1.8
		c1-1.2,1.6-3.1,1.6-5.8c0-2.8-0.6-4.7-1.6-5.9c-1.1-1.2-2.8-1.8-5.2-1.8h-5.9V30.1z M66.2,61.7H73c1.2,0,2.3-0.2,3.1-0.5
		c0.9-0.3,1.6-0.9,2.1-1.6c0.5-0.7,0.9-1.7,1.2-2.9c0.3-1.2,0.4-2.7,0.4-4.4c0-3.1-0.5-5.4-1.6-7c-1-1.5-2.8-2.3-5.3-2.3h-6.7V61.7z
		"/>
	<path class="st2" d="M99.7,49c1.2,0,2-0.5,2.5-1.4c0.5-1,0.7-2.2,0.7-3.6V14.1c0-1.5-0.3-2.6-0.8-3.3c-0.5-0.7-1.3-1-2.5-1V0h16
		L131,29.9V14.1c0-1.5-0.3-2.6-0.8-3.3c-0.5-0.7-1.3-1-2.3-1V0H147v9.8c-1.1,0-1.9,0.4-2.4,1.1c-0.5,0.7-0.7,1.8-0.7,3.3v43.8H131
		l-15.5-30.3v16.3c0,0.7,0.1,1.4,0.2,2c0.1,0.6,0.3,1.2,0.5,1.6s0.6,0.8,1,1.1c0.4,0.3,0.9,0.4,1.5,0.4v8.9h-19V49z"/>
</g>
</svg>
