<?xml version="1.0" encoding="utf-8"?>
<!-- Generator: Adobe Illustrator 21.0.0, SVG Export Plug-In . SVG Version: 6.00 Build 0)  -->
<svg version="1.1" id="Layer_1" xmlns="http://www.w3.org/2000/svg" xmlns:xlink="http://www.w3.org/1999/xlink" x="0px" y="0px"
	 viewBox="0 0 124.9 124.8" style="enable-background:new 0 0 124.9 124.8;" xml:space="preserve">
<style type="text/css">
	.st0{fill:#444444;}
	.st1{fill:#444545;stroke:#444444;stroke-miterlimit:10;}
	.st2{fill:none;stroke:#444444;stroke-width:3;stroke-linecap:round;stroke-linejoin:round;stroke-dasharray:7.0718,7.0718;}
	.st3{opacity:0.9;}
	.st4{stroke:#000000;stroke-miterlimit:10;}
</style>
<path class="st0" d="M-56,58.1c-0.2-1.9-1.6-3.7-2.5-5.5C-59,51.4-60,50.2-60,49c-0.1-8.1,0-16.2-0.1-24.3
	C-60.3,12-69.9,2.6-82.7,2.6c-25.5,0-51,0-76.5,0c-12.9,0-22.5,9.6-22.5,22.5c0,25.8,0,51.6,0,77.4c0,12.7,9.7,22.3,22.4,22.3
	c12.8,0,25.6,0,38.4,0c0,0,0,0,0,0c12.5,0,25-0.3,37.5,0.1c14.2,0.4,23.8-11.6,23.4-23.1c-0.3-7.8-0.1-15.6,0-23.4
	c0-1.2,1.1-2.5,1.7-3.7c0.8-1.8,2.1-3.5,2.3-5.3C-55.6,65.7-55.6,61.8-56,58.1z M-71.9,69.6c-3.3,0-5.9-2.7-5.8-6
	c0.1-3.1,2.6-5.7,5.7-5.8c3.3-0.1,5.9,2.5,6,5.8C-66,66.9-68.6,69.6-71.9,69.6z M-83.3,116.8c-12.6-0.3-25.2-0.1-37.8-0.1
	c0,0,0,0,0,0c-12.5,0-25,0-37.5,0c-9.5,0-15-5.6-15-15.2c0-25.2,0-50.4,0-75.6c0-9.7,5.5-15.2,15.3-15.2c24.9,0,49.8,0.2,74.7-0.1
	c9.1-0.1,16,7.2,15.5,15.6c-0.4,7.2-0.2,14.4,0,21.6c0.1,2.6-0.6,3.7-3.4,3.6c-4.8-0.1-9.1,1.5-11.6,6c-4.9,8.8,0.6,18.2,10.9,18.6
	c4.6,0.2,4,0.1,4,4.4c0,7.1-0.3,14.2,0.1,21.3C-67.7,109-74,117-83.3,116.8z"/>
<path class="st0" d="M-120.8,97.9c-18.9-0.1-34-15.5-33.9-34.6c0.1-18.6,15.5-33.8,34.1-33.8c19,0,34.1,15.4,34,34.5
	C-86.6,82.9-101.9,98-120.8,97.9z M-120.6,93.5c16.5-0.1,29.5-13.3,29.5-29.9c0-16.5-13.4-29.8-29.8-29.7
	c-16.4,0.2-29.4,13.5-29.4,30.1C-150.1,80.3-136.8,93.6-120.6,93.5z"/>
<g>
	<path class="st1" d="M-103.7,64.7c-2.3,1.4-4.5,2.7-6.7,4c-3.2,1.9-6.5,3.8-9.7,5.8c-0.3,0.2-0.6,0.2-0.9,0
		c-3.7-2.2-7.4-4.4-11-6.6c-1.8-1.1-3.6-2.1-5.5-3.2c5.6-9.3,11.2-18.6,16.9-28c0.2,0.2,0.3,0.4,0.4,0.6c1.8,2.9,3.6,5.8,5.3,8.7
		c3.2,5.3,6.4,10.6,9.6,15.8C-104.8,62.7-104.2,63.6-103.7,64.7z M-120.1,39.1c0,0.3,0,0.4,0,0.5c0,5.6,0,11.2,0,16.9
		c0,0.4,0.1,0.5,0.4,0.7c4.3,1.9,8.6,3.9,12.9,5.9c0.5,0.2,0.9,0.4,1.5,0.7C-110.3,55.4-115.2,47.3-120.1,39.1z M-135.7,63.6
		c0.2-0.1,0.3-0.1,0.4-0.2c4.6-2.1,9.3-4.2,13.9-6.3c0.4-0.2,0.4-0.4,0.4-0.7c0-5.6,0-11.2,0-16.7c0-0.1,0-0.2,0-0.4
		C-126,47.4-130.8,55.4-135.7,63.6z M-121.1,57.9c-4.9,2.2-9.8,4.4-14.7,6.7c4.9,2.9,9.8,5.8,14.7,8.7
		C-121.1,68.2-121.1,63.1-121.1,57.9z M-120.1,73.3c4.9-2.9,9.7-5.8,14.6-8.7c-4.9-2.3-9.7-4.5-14.6-6.8
		C-120.1,63.1-120.1,68.2-120.1,73.3z"/>
	<path class="st1" d="M-104.1,67.7c-5.4,7.7-10.9,15.3-16.4,23.1C-126,83-131.5,75.4-137,67.6c0.2,0.1,0.3,0.2,0.5,0.2
		c4.9,2.9,9.8,5.7,14.6,8.7c1,0.6,1.7,0.6,2.8,0c4.5-2.8,9-5.4,13.5-8.1C-105.2,68.1-104.7,67.8-104.1,67.7
		C-104.2,67.6-104.2,67.6-104.1,67.7z M-121.2,88.4c0,0,0.1,0,0.1,0c0-0.1,0-0.1,0-0.2c0-3.2,0-6.5,0-9.7c0-0.3-0.1-0.5-0.4-0.6
		c-3.9-2.2-7.7-4.5-11.6-6.7c-0.2-0.1-0.4-0.2-0.6-0.4c0,0,0,0-0.1,0.1C-129.5,76.6-125.4,82.5-121.2,88.4z M-107.4,70.7
		c-0.1,0-0.2,0-0.2,0.1c-4,2.4-8.1,4.7-12.1,7.1c-0.3,0.2-0.4,0.4-0.4,0.7c0,3.2,0,6.4,0,9.6c0,0.1,0,0.2,0.1,0.3
		C-115.8,82.5-111.7,76.6-107.4,70.7z"/>
</g>
<g>
	<path class="st2" d="M-92.5,109.2h-52.4c-9.4,0-17.1-7.7-17.1-17.1V35.4c0-9.4,7.7-17.1,17.1-17.1h52.4c9.4,0,17.1,7.7,17.1,17.1
		v56.7C-75.4,101.5-83.1,109.2-92.5,109.2z"/>
</g>
<g>
	<path class="st0" d="M62.4,99.1c-20.2,0-36.7-16.4-36.8-36.6c-0.1-20.3,16.5-36.9,36.8-36.9c20.3,0,36.7,16.4,36.7,36.6
		C99.2,82.6,82.8,99.1,62.4,99.1z M62.4,28.9c-18.5,0-33.5,15-33.5,33.5c0,18.5,15.1,33.5,33.6,33.5C81,95.9,96,80.9,96,62.4
		C95.9,43.9,80.9,28.9,62.4,28.9z"/>
	<path class="st0" d="M89,18.8C73.7,10,58.2,8.9,42.1,15.5c-0.5-0.9-0.9-1.7-1.5-2.8c6.2-2.8,12.5-4.2,19.2-4.5
		c10.7-0.5,20.7,2,30,7.3c0.7,0.4,2.2,0.3,2.9-0.1c6-3.7,13.8-1.9,17.3,4.1c3.4,5.9,1.1,13.6-5,16.8c-6,3.2-13.7,0.6-16.6-5.6
		C86.5,26.8,87,22.9,89,18.8z M99.3,34.4c4.9,0,9-4,9-8.9c0-4.9-4.2-9-9-9c-4.7,0-8.8,4.1-8.9,8.8C90.3,30.2,94.4,34.4,99.3,34.4z"
		/>
	<path class="st0" d="M109.4,42c0.5-0.3,0.9-0.6,1.4-0.9c0.4-0.2,0.8-0.2,1.5-0.4c7,17.5,5.7,34.2-3.7,50.3
		c3.9,5.7,4.4,12.4-1.5,17.6c-4.3,3.8-10.9,3.7-15.4,0.1c-4.5-3.7-5.8-10.2-3.1-15.1c3.4-6,8.9-7.6,17.4-4.9c4.4-7,6.7-14.7,7.4-23
		C114.1,57.6,112.4,49.7,109.4,42z M99.4,90.4c-4.9,0-9,4-9,8.9c0,4.8,4.2,9,9,9c4.7,0,8.8-4.1,8.9-8.8
		C108.4,94.6,104.3,90.4,99.4,90.4z"/>
	<path class="st0" d="M15.5,82.9c-1.1,0.4-1.8,0.8-2.8,1.2c-2.3-5.2-3.8-10.4-4.3-15.9c-1.1-11.7,1.1-22.7,7-32.8
		c0.8-1.3,0.6-2.2-0.1-3.5c-3.2-5.1-2.3-11.6,2.1-15.4c4.5-3.9,11-4.2,15.6-0.6c4.6,3.6,6,10.1,3.3,15.3c-2.7,5.2-8.9,7.6-14.7,5.7
		c-0.8-0.3-1.6-0.6-2.7-1C10,51,9.1,66.5,15.5,82.9z M34.4,25.4c0-4.9-4.2-9-9.1-8.9c-4.7,0.1-8.8,4.2-8.8,8.9c0,4.9,4.1,9,9,9
		C30.4,34.4,34.5,30.3,34.4,25.4z"/>
	<path class="st0" d="M35.9,106c12.9,7.5,26.3,9.5,40.7,5.5c0.3,0.5,0.6,1,0.7,1.4c0.1,0.4,0.2,0.8,0.4,2c-4.2,0.6-8.4,1.5-12.6,1.7
		c-10.6,0.7-20.5-1.8-29.7-7.1c-1.4-0.8-2.3-0.8-3.7,0.1c-5,3.2-11.6,2.2-15.4-2.2c-4-4.5-4.1-11.1-0.3-15.8
		c3.5-4.4,10.2-5.7,15.1-3c5.3,2.9,7.6,9,5.6,14.8C36.6,104.2,36.3,105,35.9,106z M34.4,99.3c0-4.9-4-8.9-9-8.9
		c-4.8,0-8.8,4-8.9,8.8c-0.1,4.8,4.1,9.1,8.9,9.1C30.3,108.3,34.4,104.2,34.4,99.3z"/>
	<path class="st0" d="M84.1,112.1c-0.9,0.4-1.6,0.7-2.5,1.1c-0.4-1-0.8-1.8-1.3-2.8c0.8-0.4,1.5-0.8,2.5-1.3
		C83.3,110.2,83.7,111.1,84.1,112.1z"/>
	<path class="st0" d="M32.7,62.5c0-16.4,13.2-29.7,29.6-29.8c16.5,0,29.9,13.3,29.8,29.8c0,16.3-13.3,29.6-29.4,29.6
		C46.1,92.1,32.8,79,32.7,62.5z M88.9,63.1c0.6-14.5-11.2-26.7-26.2-27.2c-14.1-0.5-26.3,11.3-26.9,25.7c-0.5,14.6,11,27,26,27.3
		C76.9,89.1,88.4,77.5,88.9,63.1z"/>
	<path class="st0" d="M94.3,25.4c0-2.9,2.4-5.2,5.2-5.1c2.8,0.1,5,2.6,4.9,5.4c-0.1,2.7-2.3,4.8-5.1,4.8
		C96.4,30.5,94.3,28.4,94.3,25.4z M99.4,28.1c0.8-1.3,1.7-2,1.7-2.7c-0.1-0.7-1.1-1.7-1.7-1.7c-0.6,0-1.6,1.1-1.7,1.7
		C97.6,26.2,98.5,26.9,99.4,28.1z"/>
	<path class="st0" d="M94.3,99.4c0-3,2.1-5.1,5-5.1c2.8,0,5,2.1,5.1,4.9c0.1,2.8-2.1,5.2-4.9,5.3C96.7,104.5,94.4,102.2,94.3,99.4z
		 M101.9,99.6c-1.1-1-1.7-2-2.3-2c-0.7,0-1.4,0.8-2.1,1.3c0.5,0.7,1,1.8,1.7,2C99.7,101.2,100.6,100.3,101.9,99.6z"/>
	<path class="st0" d="M25.5,30.5c-2.9,0-5.2-2.3-5.1-5.1c0.1-2.7,2.4-5,5-5.1c2.7-0.1,5.2,2.4,5.2,5.1
		C30.7,28.3,28.4,30.6,25.5,30.5z M25.7,22.8c-1,1.2-1.9,1.9-1.9,2.5c0,0.7,1,1.3,1.6,2c0.6-0.6,1.7-1.1,1.8-1.7
		C27.3,25,26.5,24.2,25.7,22.8z"/>
	<path class="st0" d="M25.5,104.4c-2.7,0-5.1-2.5-5.1-5.3c0.1-2.7,2.3-4.9,5.1-4.9c2.9,0,5.2,2.2,5.2,5.1
		C30.6,102,28.2,104.5,25.5,104.4z M28.2,99.3c-1.3-0.9-2-1.8-2.7-1.7c-0.7,0.1-1.2,1.1-1.9,1.7c0.6,0.6,1.2,1.6,1.8,1.7
		C26.1,101.1,26.9,100.2,28.2,99.3z"/>
	<g>
		<g>
			<g class="st3">
				<path class="st0" d="M56.6,70.8V53.9h7.5c2.9,0,4.7,1.8,4.7,4.3c0,2.1-1.4,3.6-3,3.9c1.8,0.3,3.3,2.1,3.3,4.2
					c0,2.7-1.8,4.6-4.9,4.6H56.6z M66.7,58.5c0-1.5-1-2.7-2.9-2.7h-5.1v5.5h5.1C65.6,61.3,66.7,60.1,66.7,58.5z M67,66.1
					c0-1.5-1.1-2.9-3.1-2.9h-5.2V69h5.2C65.8,69,67,67.9,67,66.1z"/>
			</g>
		</g>
		<g>
			<g class="st3">
				<path class="st0" d="M83.5,70.8l-9.9-13.5v13.5h-2.1V53.9h2.2l9.7,13.2V53.9h2.1v16.9H83.5z"/>
			</g>
		</g>
		<g>
			<polygon class="st0" points="48.7,62.1 54.9,53.9 52.3,53.9 47.3,60.7 42.3,53.9 39.7,53.9 46,62.2 39.4,70.8 47.3,63.6 
				55.3,70.8 			"/>
		</g>
		<g>
			<g>
				<g>
					<polygon class="st0" points="49.8,67.1 47.3,65 44.9,67.1 					"/>
				</g>
				<g>
					<polygon class="st0" points="44,67.9 41.9,69.7 52.8,69.7 50.7,67.9 					"/>
				</g>
			</g>
		</g>
	</g>
</g>
<g>
	<g>
		<path class="st4" d="M527.2,61.8c-2.3,1.4-4.5,2.7-6.7,4c-3.2,1.9-6.5,3.8-9.7,5.8c-0.3,0.2-0.6,0.2-0.9,0
			c-3.7-2.2-7.4-4.4-11-6.6c-1.8-1.1-3.6-2.1-5.5-3.2c5.6-9.3,11.2-18.6,16.9-28c0.2,0.2,0.3,0.4,0.4,0.6c1.8,2.9,3.6,5.8,5.3,8.7
			c3.2,5.3,6.4,10.6,9.6,15.8C526.1,59.8,526.6,60.8,527.2,61.8z M510.8,36.3c0,0.3,0,0.4,0,0.5c0,5.6,0,11.2,0,16.9
			c0,0.4,0.1,0.5,0.4,0.7c4.3,1.9,8.6,3.9,12.9,5.9c0.5,0.2,0.9,0.4,1.5,0.7C520.6,52.6,515.7,44.5,510.8,36.3z M495.1,60.7
			c0.2-0.1,0.3-0.1,0.4-0.2c4.6-2.1,9.3-4.2,13.9-6.3c0.4-0.2,0.4-0.4,0.4-0.7c0-5.6,0-11.2,0-16.7c0-0.1,0-0.2,0-0.4
			C504.9,44.5,500,52.6,495.1,60.7z M509.8,55.1c-4.9,2.2-9.8,4.4-14.7,6.7c4.9,2.9,9.8,5.8,14.7,8.7
			C509.8,65.3,509.8,60.2,509.8,55.1z M510.7,70.5c4.9-2.9,9.7-5.8,14.6-8.7c-4.9-2.3-9.7-4.5-14.6-6.8
			C510.7,60.2,510.7,65.3,510.7,70.5z"/>
		<path class="st4" d="M526.7,64.8c-5.4,7.7-10.9,15.3-16.4,23.1c-5.5-7.7-10.9-15.4-16.5-23.2c0.2,0.1,0.3,0.2,0.5,0.2
			c4.9,2.9,9.8,5.7,14.6,8.7c1,0.6,1.7,0.6,2.8,0c4.5-2.8,9-5.4,13.5-8.1C525.6,65.2,526.1,65,526.7,64.8
			C526.7,64.7,526.7,64.8,526.7,64.8z M509.7,85.5c0,0,0.1,0,0.1,0c0-0.1,0-0.1,0-0.2c0-3.2,0-6.5,0-9.7c0-0.3-0.1-0.5-0.4-0.6
			c-3.9-2.2-7.7-4.5-11.6-6.7c-0.2-0.1-0.4-0.2-0.6-0.4c0,0,0,0-0.1,0.1C501.3,73.8,505.5,79.6,509.7,85.5z M523.4,67.8
			c-0.1,0-0.2,0-0.2,0.1c-4,2.4-8.1,4.7-12.1,7.1c-0.3,0.2-0.4,0.4-0.4,0.7c0,3.2,0,6.4,0,9.6c0,0.1,0,0.2,0.1,0.3
			C515,79.7,519.2,73.8,523.4,67.8z"/>
	</g>
	<path d="M471.3,83.3c-12.9-24.9-2-47.9,12.3-58.5c15.4-11.4,37.6-11.6,53.2-0.2c13.8,10.1,25.7,32.9,12.5,58.6
		c4.7,1.2,9.3,2.3,13.8,3.6c1.5,0.4,3.2,0.7,4.5,1.5c3.9,2.6,4,6.8,0.4,11.3c3.6,5.8,3.6,7-0.1,12c0.4,0.4,0.8,0.9,1.1,1.3
		c3.2,4,1.8,9.3-3.1,10.8c-4.5,1.4-9.1,2.4-13.6,3.6c-9.3,2.3-18.7,4.4-27.9,7.1c-9.4,2.7-18.5,2.7-28,0.1
		c-13.1-3.7-26.3-6.7-39.5-10c-7.7-2-9.2-6.7-4.3-13c-3.7-4.6-3.7-7.1,0-11.8c-0.5-0.6-1.1-1.3-1.6-2c-2.8-4.1-0.6-9.2,4.3-10.5
		C460.6,86,465.8,84.7,471.3,83.3z M546.3,113.5c5.5-1.4,10.8-2.7,16.1-4.1c2.2-0.6,5.1-0.8,4.6-4.3c-0.3-2-3.8-3.7-6.7-3.3
		c-0.3,0-0.6,0.2-0.9,0.2c-13.3,3.3-26.5,6.6-39.8,10c-6.2,1.6-12.4,1.7-18.6,0c-10.3-2.7-20.7-5.2-31.1-7.8
		c-3.1-0.8-6.2-1.6-9.3-2.3c-3-0.7-6.6,0.9-7.1,3c-0.6,2.2,0.7,3.5,4.8,4.5c12.9,3.2,25.8,6.1,38.6,9.8c9.4,2.7,18.4,2.6,27.7-0.3
		c5.7-1.7,11.6-3,17.3-4.4c1.3,2.2,1.5,3.5-1.4,4.1c-7.7,1.7-15.3,3.9-23,5.7c-5.2,1.2-10.5,1-15.7-0.3c-13.3-3.4-26.7-6.7-40.1-10
		c-1.4-0.3-2.9-0.2-4.4,0c-2,0.2-3.8,1.1-3.8,3.5c0,2.4,1.9,3,3.8,3.5c14,3.5,28.1,7,42.1,10.6c7.2,1.9,14.4,2,21.6,0
		c7.8-2.1,15.7-4,23.5-5.9c6.5-1.6,13-3.1,19.4-5c1.2-0.4,3-2.1,2.9-3c-0.1-1.2-1.6-2.9-2.9-3.4c-1.5-0.6-3.5-0.5-5.2-0.2
		c-3.9,0.8-7.7,1.8-11.8,2.8C546.7,115.6,546.5,114.7,546.3,113.5z M510.2,102c22.6,0,41.1-18.3,41.2-40.9
		c0.1-23-18.2-41.6-41.1-41.6c-22.7,0-41.2,18.5-41.2,41.2C469.1,83.5,487.5,102,510.2,102z M510.2,110.1c0-0.1,0-0.2,0.1-0.2
		c1.6-0.1,3.2,0,4.8-0.4c16.3-4,32.6-8,48.8-12.1c1.7-0.4,3.6-1.3,3-3.3c-0.4-1.3-1.9-2.8-3.2-3.2c-4.7-1.5-9.5-2.4-14.2-3.7
		c-1.8-0.5-2.8-0.2-4,1.3c-18.5,22.9-52.1,22.9-70.5,0c-1.1-1.4-2-1.9-3.8-1.4c-4.5,1.3-9.1,2.3-13.6,3.4c-1.9,0.5-4.1,1-4.1,3.6
		c-0.1,2.7,2.1,3.1,4.1,3.6c14.5,3.6,29,7.3,43.6,10.9C504.1,109.1,507.2,109.5,510.2,110.1z"/>
	<path d="M547.2,61c-0.1,20.3-16.6,36.8-36.9,36.9c-20.5,0-37-16.8-36.9-37.4c0.1-20.4,16.8-36.7,37.3-36.6
		C530.9,23.9,547.2,40.6,547.2,61z M510.2,94c18.6,0,33.4-14.7,33.5-33.2c0-18.4-15-33.4-33.3-33.5c-18.3-0.1-33.5,15.1-33.5,33.4
		C476.8,79.2,491.7,94,510.2,94z"/>
</g>
</svg>
