<?xml version="1.0" encoding="utf-8"?>
<!-- Generator: Adobe Illustrator 21.0.0, SVG Export Plug-In . SVG Version: 6.00 Build 0)  -->
<svg version="1.1" id="Layer_1" xmlns="http://www.w3.org/2000/svg" xmlns:xlink="http://www.w3.org/1999/xlink" x="0px" y="0px"
	 viewBox="0 0 124.9 124.8" style="enable-background:new 0 0 124.9 124.8;" xml:space="preserve">
<style type="text/css">
	.st0{fill:#444444;}
	.st1{fill:#444545;stroke:#444444;stroke-miterlimit:10;}
	.st2{fill:none;stroke:#444444;stroke-width:3;stroke-linecap:round;stroke-linejoin:round;stroke-dasharray:7.0705,7.0705;}
	.st3{opacity:0.9;}
	.st4{stroke:#000000;stroke-miterlimit:10;}
</style>
<g>
	<path class="st0" d="M120.1,57.1c-0.2-1.8-1.5-3.4-2.3-5.1c-0.5-1.1-1.4-2.1-1.4-3.2c-0.1-7.4,0-14.9-0.1-22.3
		c-0.2-11.7-9-20.4-20.8-20.4c-23.5,0-46.9,0-70.4,0c-11.9,0-20.7,8.8-20.7,20.7c0,23.7,0,47.5,0,71.2c0,11.7,8.9,20.5,20.6,20.5
		c11.8,0,23.5,0,35.3,0c0,0,0,0,0,0c11.5,0,23-0.3,34.5,0.1c13.1,0.4,21.9-10.7,21.5-21.2c-0.2-7.2-0.1-14.3,0-21.5
		c0-1.1,1-2.3,1.5-3.4c0.8-1.6,2-3.2,2.1-4.9C120.5,64.1,120.5,60.6,120.1,57.1z M105.5,67.7c-3,0-5.4-2.5-5.4-5.5
		c0.1-2.9,2.4-5.3,5.3-5.3c3-0.1,5.4,2.3,5.5,5.4C110.9,65.3,108.5,67.7,105.5,67.7z M95,111.2c-11.6-0.3-23.2-0.1-34.8-0.1
		c0,0,0,0,0,0c-11.5,0-23,0-34.5,0c-8.8,0-13.8-5.1-13.8-14c0-23.2,0-46.4,0-69.5c0-9,5.1-14,14-14c22.9,0,45.8,0.2,68.7-0.1
		c8.4-0.1,14.7,6.6,14.2,14.3c-0.4,6.6-0.2,13.2,0,19.9c0.1,2.4-0.5,3.4-3.2,3.4c-4.5-0.1-8.4,1.4-10.7,5.5
		c-4.5,8.1,0.5,16.7,10,17.1c4.2,0.2,3.7,0.1,3.7,4.1c0,6.5-0.3,13.1,0.1,19.6C109.3,104,103.6,111.4,95,111.2z"/>
	<path class="st0" d="M60.5,93.8c-17.4-0.1-31.3-14.2-31.2-31.8c0.1-17.1,14.2-31.1,31.4-31.1c17.5,0,31.4,14.2,31.3,31.7
		C91.9,80,77.9,93.9,60.5,93.8z M60.7,89.8c15.1,0,27.2-12.3,27.1-27.5c0-15.2-12.3-27.5-27.4-27.3c-15.1,0.2-27.1,12.4-27,27.7
		C33.5,77.6,45.8,89.8,60.7,89.8z"/>
	<g>
		<path class="st1" d="M76.3,63.2c-2.1,1.2-4.2,2.4-6.2,3.6c-3,1.8-5.9,3.5-8.9,5.3c-0.3,0.2-0.5,0.2-0.8,0c-3.4-2-6.8-4-10.2-6
			c-1.7-1-3.3-2-5.1-3c5.1-8.5,10.3-17.1,15.5-25.7c0.2,0.2,0.3,0.3,0.4,0.5c1.6,2.7,3.3,5.3,4.9,8c2.9,4.9,5.9,9.7,8.8,14.6
			C75.3,61.4,75.7,62.3,76.3,63.2z M61.1,39.7c0,0.2,0,0.3,0,0.4c0,5.2,0,10.3,0,15.5c0,0.3,0.1,0.5,0.4,0.6c4,1.8,7.9,3.6,11.9,5.4
			c0.4,0.2,0.8,0.4,1.4,0.6C70.2,54.7,65.7,47.3,61.1,39.7z M46.8,62.2c0.2-0.1,0.3-0.1,0.4-0.1c4.3-1.9,8.5-3.9,12.8-5.8
			c0.3-0.1,0.3-0.3,0.3-0.6c0-5.1,0-10.3,0-15.4c0-0.1,0-0.2,0-0.4C55.7,47.3,51.3,54.7,46.8,62.2z M60.2,57
			c-4.5,2.1-9,4.1-13.5,6.2c4.5,2.7,9,5.3,13.5,8C60.2,66.4,60.2,61.8,60.2,57z M61.1,71.2c4.5-2.7,9-5.3,13.5-8
			c-4.5-2.1-9-4.1-13.5-6.2C61.1,61.8,61.1,66.4,61.1,71.2z"/>
		<path class="st1" d="M75.8,66c-5,7.1-10,14.1-15.1,21.2c-5-7.1-10.1-14.2-15.1-21.3c0.2,0.1,0.3,0.1,0.4,0.2c4.5,2.7,9,5.3,13.4,8
			c0.9,0.6,1.6,0.6,2.5,0c4.1-2.5,8.3-5,12.4-7.5C74.8,66.4,75.3,66.1,75.8,66C75.8,65.9,75.8,66,75.8,66z M60.1,85c0,0,0.1,0,0.1,0
			c0-0.1,0-0.1,0-0.2c0-3,0-6,0-8.9c0-0.3-0.1-0.5-0.4-0.6c-3.5-2.1-7.1-4.1-10.6-6.2c-0.2-0.1-0.4-0.2-0.6-0.3c0,0,0,0,0,0.1
			C52.5,74.2,56.3,79.6,60.1,85z M72.8,68.8c-0.1,0-0.2,0-0.2,0.1c-3.7,2.2-7.4,4.3-11.1,6.5c-0.3,0.2-0.4,0.3-0.4,0.7
			c0,2.9,0,5.9,0,8.8c0,0.1,0,0.2,0,0.3C65.1,79.6,68.9,74.2,72.8,68.8z"/>
	</g>
	<g>
		<path class="st2" d="M85.2,104.2H39.7c-9.4,0-17.1-7.7-17.1-17.1V37.7c0-9.4,7.7-17.1,17.1-17.1h45.5c9.4,0,17.1,7.7,17.1,17.1
			v49.4C102.2,96.5,94.6,104.2,85.2,104.2z"/>
	</g>
</g>
<g>
	<path class="st0" d="M217.9,99.1c-20.2,0-36.7-16.4-36.8-36.6c-0.1-20.3,16.5-36.9,36.8-36.9c20.3,0,36.7,16.4,36.7,36.6
		C254.7,82.6,238.3,99.1,217.9,99.1z M217.9,28.9c-18.5,0-33.5,15-33.5,33.5c0,18.5,15.1,33.5,33.6,33.5c18.5,0,33.5-15,33.5-33.5
		C251.4,43.9,236.4,28.9,217.9,28.9z"/>
	<path class="st0" d="M244.5,18.8c-15.3-8.8-30.8-9.9-46.9-3.3c-0.5-0.9-0.9-1.7-1.5-2.8c6.2-2.8,12.5-4.2,19.2-4.5
		c10.7-0.5,20.7,2,30,7.3c0.7,0.4,2.2,0.3,2.9-0.1c6-3.7,13.8-1.9,17.3,4.1c3.4,5.9,1.1,13.6-5,16.8c-6,3.2-13.7,0.6-16.6-5.6
		C242,26.8,242.5,22.9,244.5,18.8z M254.8,34.4c4.9,0,9-4,9-8.9c0-4.9-4.2-9-9-9c-4.7,0-8.8,4.1-8.9,8.8
		C245.8,30.2,249.9,34.4,254.8,34.4z"/>
	<path class="st0" d="M264.9,42c0.5-0.3,0.9-0.6,1.4-0.9c0.4-0.2,0.8-0.2,1.5-0.4c7,17.5,5.7,34.2-3.7,50.3
		c3.9,5.7,4.4,12.4-1.5,17.6c-4.3,3.8-10.9,3.7-15.4,0.1c-4.5-3.7-5.8-10.2-3.1-15.1c3.4-6,8.9-7.6,17.4-4.9c4.4-7,6.7-14.7,7.4-23
		C269.6,57.6,267.9,49.7,264.9,42z M254.9,90.4c-4.9,0-9,4-9,8.9c0,4.8,4.2,9,9,9c4.7,0,8.8-4.1,8.9-8.8
		C263.9,94.6,259.8,90.4,254.9,90.4z"/>
	<path class="st0" d="M171,82.9c-1.1,0.4-1.8,0.8-2.8,1.2c-2.3-5.2-3.8-10.4-4.3-15.9c-1.1-11.7,1.1-22.7,7-32.8
		c0.8-1.3,0.6-2.2-0.1-3.5c-3.2-5.1-2.3-11.6,2.1-15.4c4.5-3.9,11-4.2,15.6-0.6c4.6,3.6,6,10.1,3.3,15.3c-2.7,5.2-8.9,7.6-14.7,5.7
		c-0.8-0.3-1.6-0.6-2.7-1C165.5,51,164.6,66.5,171,82.9z M189.9,25.4c0-4.9-4.2-9-9.1-8.9c-4.7,0.1-8.8,4.2-8.8,8.9c0,4.9,4.1,9,9,9
		C185.9,34.4,190,30.3,189.9,25.4z"/>
	<path class="st0" d="M191.4,106c12.9,7.5,26.3,9.5,40.7,5.5c0.3,0.5,0.6,1,0.7,1.4c0.1,0.4,0.2,0.8,0.4,2
		c-4.2,0.6-8.4,1.5-12.6,1.7c-10.6,0.7-20.5-1.8-29.7-7.1c-1.4-0.8-2.3-0.8-3.7,0.1c-5,3.2-11.6,2.2-15.4-2.2
		c-4-4.5-4.1-11.1-0.3-15.8c3.5-4.4,10.2-5.7,15.1-3c5.3,2.9,7.6,9,5.6,14.8C192.1,104.2,191.8,105,191.4,106z M189.9,99.3
		c0-4.9-4-8.9-9-8.9c-4.8,0-8.8,4-8.9,8.8c-0.1,4.8,4.1,9.1,8.9,9.1C185.8,108.3,189.9,104.2,189.9,99.3z"/>
	<path class="st0" d="M239.6,112.1c-0.9,0.4-1.6,0.7-2.5,1.1c-0.4-1-0.8-1.8-1.3-2.8c0.8-0.4,1.5-0.8,2.5-1.3
		C238.8,110.2,239.2,111.1,239.6,112.1z"/>
	<path class="st0" d="M188.2,62.5c0-16.4,13.2-29.7,29.6-29.8c16.5,0,29.9,13.3,29.8,29.8c0,16.3-13.3,29.6-29.4,29.6
		C201.6,92.1,188.3,79,188.2,62.5z M244.4,63.1c0.6-14.5-11.2-26.7-26.2-27.2c-14.1-0.5-26.3,11.3-26.9,25.7
		c-0.5,14.6,11,27,26,27.3C232.4,89.1,243.9,77.5,244.4,63.1z"/>
	<path class="st0" d="M249.8,25.4c0-2.9,2.4-5.2,5.2-5.1c2.8,0.1,5,2.6,4.9,5.4c-0.1,2.7-2.3,4.8-5.1,4.8
		C251.9,30.5,249.8,28.4,249.8,25.4z M254.9,28.1c0.8-1.3,1.7-2,1.7-2.7c-0.1-0.7-1.1-1.7-1.7-1.7c-0.6,0-1.6,1.1-1.7,1.7
		C253.1,26.2,254,26.9,254.9,28.1z"/>
	<path class="st0" d="M249.8,99.4c0-3,2.1-5.1,5-5.1c2.8,0,5,2.1,5.1,4.9c0.1,2.8-2.1,5.2-4.9,5.3
		C252.2,104.5,249.9,102.2,249.8,99.4z M257.4,99.6c-1.1-1-1.7-2-2.3-2c-0.7,0-1.4,0.8-2.1,1.3c0.5,0.7,1,1.8,1.7,2
		C255.2,101.2,256.1,100.3,257.4,99.6z"/>
	<path class="st0" d="M181,30.5c-2.9,0-5.2-2.3-5.1-5.1c0.1-2.7,2.4-5,5-5.1c2.7-0.1,5.2,2.4,5.2,5.1
		C186.2,28.3,183.9,30.6,181,30.5z M181.2,22.8c-1,1.2-1.9,1.9-1.9,2.5c0,0.7,1,1.3,1.6,2c0.6-0.6,1.7-1.1,1.8-1.7
		C182.8,25,182,24.2,181.2,22.8z"/>
	<path class="st0" d="M181,104.4c-2.7,0-5.1-2.5-5.1-5.3c0.1-2.7,2.3-4.9,5.1-4.9c2.9,0,5.2,2.2,5.2,5.1
		C186.1,102,183.7,104.5,181,104.4z M183.7,99.3c-1.3-0.9-2-1.8-2.7-1.7c-0.7,0.1-1.2,1.1-1.9,1.7c0.6,0.6,1.2,1.6,1.8,1.7
		C181.6,101.1,182.4,100.2,183.7,99.3z"/>
	<g>
		<g>
			<g class="st3">
				<path class="st0" d="M212.1,70.8V53.9h7.5c2.9,0,4.7,1.8,4.7,4.3c0,2.1-1.4,3.6-3,3.9c1.8,0.3,3.3,2.1,3.3,4.2
					c0,2.7-1.8,4.6-4.9,4.6H212.1z M222.2,58.5c0-1.5-1-2.7-2.9-2.7h-5.1v5.5h5.1C221.1,61.3,222.2,60.1,222.2,58.5z M222.5,66.1
					c0-1.5-1.1-2.9-3.1-2.9h-5.2V69h5.2C221.3,69,222.5,67.9,222.5,66.1z"/>
			</g>
		</g>
		<g>
			<g class="st3">
				<path class="st0" d="M239,70.8l-9.9-13.5v13.5H227V53.9h2.2l9.7,13.2V53.9h2.1v16.9H239z"/>
			</g>
		</g>
		<g>
			<polygon class="st0" points="204.2,62.1 210.4,53.9 207.8,53.9 202.8,60.7 197.8,53.9 195.2,53.9 201.5,62.2 194.9,70.8 
				202.8,63.6 210.8,70.8 			"/>
		</g>
		<g>
			<g>
				<g>
					<polygon class="st0" points="205.3,67.1 202.8,65 200.4,67.1 					"/>
				</g>
				<g>
					<polygon class="st0" points="199.5,67.9 197.4,69.7 208.3,69.7 206.2,67.9 					"/>
				</g>
			</g>
		</g>
	</g>
</g>
<g>
	<g>
		<path class="st4" d="M527.2,61.8c-2.3,1.4-4.5,2.7-6.7,4c-3.2,1.9-6.5,3.8-9.7,5.8c-0.3,0.2-0.6,0.2-0.9,0
			c-3.7-2.2-7.4-4.4-11-6.6c-1.8-1.1-3.6-2.1-5.5-3.2c5.6-9.3,11.2-18.6,16.9-28c0.2,0.2,0.3,0.4,0.4,0.6c1.8,2.9,3.6,5.8,5.3,8.7
			c3.2,5.3,6.4,10.6,9.6,15.8C526.1,59.8,526.6,60.8,527.2,61.8z M510.8,36.3c0,0.3,0,0.4,0,0.5c0,5.6,0,11.2,0,16.9
			c0,0.4,0.1,0.5,0.4,0.7c4.3,1.9,8.6,3.9,12.9,5.9c0.5,0.2,0.9,0.4,1.5,0.7C520.6,52.6,515.7,44.5,510.8,36.3z M495.1,60.7
			c0.2-0.1,0.3-0.1,0.4-0.2c4.6-2.1,9.3-4.2,13.9-6.3c0.4-0.2,0.4-0.4,0.4-0.7c0-5.6,0-11.2,0-16.7c0-0.1,0-0.2,0-0.4
			C504.9,44.5,500,52.6,495.1,60.7z M509.8,55.1c-4.9,2.2-9.8,4.4-14.7,6.7c4.9,2.9,9.8,5.8,14.7,8.7
			C509.8,65.3,509.8,60.2,509.8,55.1z M510.7,70.5c4.9-2.9,9.7-5.8,14.6-8.7c-4.9-2.3-9.7-4.5-14.6-6.8
			C510.7,60.2,510.7,65.3,510.7,70.5z"/>
		<path class="st4" d="M526.7,64.8c-5.4,7.7-10.9,15.3-16.4,23.1c-5.5-7.7-10.9-15.4-16.5-23.2c0.2,0.1,0.3,0.2,0.5,0.2
			c4.9,2.9,9.8,5.7,14.6,8.7c1,0.6,1.7,0.6,2.8,0c4.5-2.8,9-5.4,13.5-8.1C525.6,65.2,526.1,65,526.7,64.8
			C526.7,64.7,526.7,64.8,526.7,64.8z M509.7,85.5c0,0,0.1,0,0.1,0c0-0.1,0-0.1,0-0.2c0-3.2,0-6.5,0-9.7c0-0.3-0.1-0.5-0.4-0.6
			c-3.9-2.2-7.7-4.5-11.6-6.7c-0.2-0.1-0.4-0.2-0.6-0.4c0,0,0,0-0.1,0.1C501.3,73.8,505.5,79.6,509.7,85.5z M523.4,67.8
			c-0.1,0-0.2,0-0.2,0.1c-4,2.4-8.1,4.7-12.1,7.1c-0.3,0.2-0.4,0.4-0.4,0.7c0,3.2,0,6.4,0,9.6c0,0.1,0,0.2,0.1,0.3
			C515,79.7,519.2,73.8,523.4,67.8z"/>
	</g>
	<path d="M471.3,83.3c-12.9-24.9-2-47.9,12.3-58.5c15.4-11.4,37.6-11.6,53.2-0.2c13.8,10.1,25.7,32.9,12.5,58.6
		c4.7,1.2,9.3,2.3,13.8,3.6c1.5,0.4,3.2,0.7,4.5,1.5c3.9,2.6,4,6.8,0.4,11.3c3.6,5.8,3.6,7-0.1,12c0.4,0.4,0.8,0.9,1.1,1.3
		c3.2,4,1.8,9.3-3.1,10.8c-4.5,1.4-9.1,2.4-13.6,3.6c-9.3,2.3-18.7,4.4-27.9,7.1c-9.4,2.7-18.5,2.7-28,0.1
		c-13.1-3.7-26.3-6.7-39.5-10c-7.7-2-9.2-6.7-4.3-13c-3.7-4.6-3.7-7.1,0-11.8c-0.5-0.6-1.1-1.3-1.6-2c-2.8-4.1-0.6-9.2,4.3-10.5
		C460.6,86,465.8,84.7,471.3,83.3z M546.3,113.5c5.5-1.4,10.8-2.7,16.1-4.1c2.2-0.6,5.1-0.8,4.6-4.3c-0.3-2-3.8-3.7-6.7-3.3
		c-0.3,0-0.6,0.2-0.9,0.2c-13.3,3.3-26.5,6.6-39.8,10c-6.2,1.6-12.4,1.7-18.6,0c-10.3-2.7-20.7-5.2-31.1-7.8
		c-3.1-0.8-6.2-1.6-9.3-2.3c-3-0.7-6.6,0.9-7.1,3c-0.6,2.2,0.7,3.5,4.8,4.5c12.9,3.2,25.8,6.1,38.6,9.8c9.4,2.7,18.4,2.6,27.7-0.3
		c5.7-1.7,11.6-3,17.3-4.4c1.3,2.2,1.5,3.5-1.4,4.1c-7.7,1.7-15.3,3.9-23,5.7c-5.2,1.2-10.5,1-15.7-0.3c-13.3-3.4-26.7-6.7-40.1-10
		c-1.4-0.3-2.9-0.2-4.4,0c-2,0.2-3.8,1.1-3.8,3.5c0,2.4,1.9,3,3.8,3.5c14,3.5,28.1,7,42.1,10.6c7.2,1.9,14.4,2,21.6,0
		c7.8-2.1,15.7-4,23.5-5.9c6.5-1.6,13-3.1,19.4-5c1.2-0.4,3-2.1,2.9-3c-0.1-1.2-1.6-2.9-2.9-3.4c-1.5-0.6-3.5-0.5-5.2-0.2
		c-3.9,0.8-7.7,1.8-11.8,2.8C546.7,115.6,546.5,114.7,546.3,113.5z M510.2,102c22.6,0,41.1-18.3,41.2-40.9
		c0.1-23-18.2-41.6-41.1-41.6c-22.7,0-41.2,18.5-41.2,41.2C469.1,83.5,487.5,102,510.2,102z M510.2,110.1c0-0.1,0-0.2,0.1-0.2
		c1.6-0.1,3.2,0,4.8-0.4c16.3-4,32.6-8,48.8-12.1c1.7-0.4,3.6-1.3,3-3.3c-0.4-1.3-1.9-2.8-3.2-3.2c-4.7-1.5-9.5-2.4-14.2-3.7
		c-1.8-0.5-2.8-0.2-4,1.3c-18.5,22.9-52.1,22.9-70.5,0c-1.1-1.4-2-1.9-3.8-1.4c-4.5,1.3-9.1,2.3-13.6,3.4c-1.9,0.5-4.1,1-4.1,3.6
		c-0.1,2.7,2.1,3.1,4.1,3.6c14.5,3.6,29,7.3,43.6,10.9C504.1,109.1,507.2,109.5,510.2,110.1z"/>
	<path d="M547.2,61c-0.1,20.3-16.6,36.8-36.9,36.9c-20.5,0-37-16.8-36.9-37.4c0.1-20.4,16.8-36.7,37.3-36.6
		C530.9,23.9,547.2,40.6,547.2,61z M510.2,94c18.6,0,33.4-14.7,33.5-33.2c0-18.4-15-33.4-33.3-33.5c-18.3-0.1-33.5,15.1-33.5,33.4
		C476.8,79.2,491.7,94,510.2,94z"/>
</g>
</svg>
