<?xml version="1.0" encoding="utf-8"?>
<!-- Generator: Adobe Illustrator 21.0.0, SVG Export Plug-In . SVG Version: 6.00 Build 0)  -->
<svg version="1.1" id="Layer_1" xmlns="http://www.w3.org/2000/svg" xmlns:xlink="http://www.w3.org/1999/xlink" x="0px" y="0px"
	 viewBox="0 0 124.9 124.8" style="enable-background:new 0 0 124.9 124.8;" xml:space="preserve">
<style type="text/css">
	.st0{fill:#444444;}
	.st1{fill:#444545;stroke:#444444;stroke-miterlimit:10;}
	.st2{fill:none;stroke:#444444;stroke-width:3;stroke-linecap:round;stroke-linejoin:round;stroke-dasharray:7.0705,7.0705;}
	.st3{opacity:0.9;}
</style>
<g>
	<path class="st0" d="M-31.9,57.1c-0.2-1.8-1.5-3.4-2.3-5.1c-0.5-1.1-1.4-2.1-1.4-3.2c-0.1-7.4,0-14.9-0.1-22.3
		c-0.2-11.7-9-20.4-20.8-20.4c-23.5,0-46.9,0-70.4,0c-11.9,0-20.7,8.8-20.7,20.7c0,23.7,0,47.5,0,71.2c0,11.7,8.9,20.5,20.6,20.5
		c11.8,0,23.5,0,35.3,0c0,0,0,0,0,0c11.5,0,23-0.3,34.5,0.1c13.1,0.4,21.9-10.7,21.5-21.2c-0.2-7.2-0.1-14.3,0-21.5
		c0-1.1,1-2.3,1.5-3.4c0.8-1.6,2-3.2,2.1-4.9C-31.5,64.1-31.5,60.6-31.9,57.1z M-46.5,67.7c-3,0-5.4-2.5-5.4-5.5
		c0.1-2.9,2.4-5.3,5.3-5.3c3-0.1,5.4,2.3,5.5,5.4C-41.1,65.3-43.5,67.7-46.5,67.7z M-57,111.2c-11.6-0.3-23.2-0.1-34.8-0.1
		c0,0,0,0,0,0c-11.5,0-23,0-34.5,0c-8.8,0-13.8-5.1-13.8-14c0-23.2,0-46.4,0-69.5c0-9,5.1-14,14-14c22.9,0,45.8,0.2,68.7-0.1
		c8.4-0.1,14.7,6.6,14.2,14.3c-0.4,6.6-0.2,13.2,0,19.9c0.1,2.4-0.5,3.4-3.2,3.4c-4.5-0.1-8.4,1.4-10.7,5.5
		c-4.5,8.1,0.5,16.7,10,17.1c4.2,0.2,3.7,0.1,3.7,4.1c0,6.5-0.3,13.1,0.1,19.6C-42.7,104-48.4,111.4-57,111.2z"/>
	<path class="st0" d="M-91.5,93.8c-17.4-0.1-31.3-14.2-31.2-31.8c0.1-17.1,14.2-31.1,31.4-31.1c17.5,0,31.4,14.2,31.3,31.7
		C-60.1,80-74.1,93.9-91.5,93.8z M-91.3,89.8c15.1,0,27.2-12.3,27.1-27.5c0-15.2-12.3-27.5-27.4-27.3c-15.1,0.2-27.1,12.4-27,27.7
		C-118.5,77.6-106.2,89.8-91.3,89.8z"/>
	<g>
		<path class="st1" d="M-75.7,63.2c-2.1,1.2-4.2,2.4-6.2,3.6c-3,1.8-5.9,3.5-8.9,5.3c-0.3,0.2-0.5,0.2-0.8,0c-3.4-2-6.8-4-10.2-6
			c-1.7-1-3.3-2-5.1-3c5.1-8.5,10.3-17.1,15.5-25.7c0.2,0.2,0.3,0.3,0.4,0.5c1.6,2.7,3.3,5.3,4.9,8c2.9,4.9,5.9,9.7,8.8,14.6
			C-76.7,61.4-76.3,62.3-75.7,63.2z M-90.9,39.7c0,0.2,0,0.3,0,0.4c0,5.2,0,10.3,0,15.5c0,0.3,0.1,0.5,0.4,0.6
			c4,1.8,7.9,3.6,11.9,5.4c0.4,0.2,0.8,0.4,1.4,0.6C-81.8,54.7-86.3,47.3-90.9,39.7z M-105.2,62.2c0.2-0.1,0.3-0.1,0.4-0.1
			c4.3-1.9,8.5-3.9,12.8-5.8c0.3-0.1,0.3-0.3,0.3-0.6c0-5.1,0-10.3,0-15.4c0-0.1,0-0.2,0-0.4C-96.3,47.3-100.7,54.7-105.2,62.2z
			 M-91.8,57c-4.5,2.1-9,4.1-13.5,6.2c4.5,2.7,9,5.3,13.5,8C-91.8,66.4-91.8,61.8-91.8,57z M-90.9,71.2c4.5-2.7,9-5.3,13.5-8
			c-4.5-2.1-9-4.1-13.5-6.2C-90.9,61.8-90.9,66.4-90.9,71.2z"/>
		<path class="st1" d="M-76.2,66c-5,7.1-10,14.1-15.1,21.2c-5-7.1-10.1-14.2-15.1-21.3c0.2,0.1,0.3,0.1,0.4,0.2
			c4.5,2.7,9,5.3,13.4,8c0.9,0.6,1.6,0.6,2.5,0c4.1-2.5,8.3-5,12.4-7.5C-77.2,66.4-76.7,66.1-76.2,66C-76.2,65.9-76.2,66-76.2,66z
			 M-91.9,85c0,0,0.1,0,0.1,0c0-0.1,0-0.1,0-0.2c0-3,0-6,0-8.9c0-0.3-0.1-0.5-0.4-0.6c-3.5-2.1-7.1-4.1-10.6-6.2
			c-0.2-0.1-0.4-0.2-0.6-0.3c0,0,0,0,0,0.1C-99.5,74.2-95.7,79.6-91.9,85z M-79.2,68.8c-0.1,0-0.2,0-0.2,0.1
			c-3.7,2.2-7.4,4.3-11.1,6.5c-0.3,0.2-0.4,0.3-0.4,0.7c0,2.9,0,5.9,0,8.8c0,0.1,0,0.2,0,0.3C-86.9,79.6-83.1,74.2-79.2,68.8z"/>
	</g>
	<g>
		<path class="st2" d="M-66.8,104.2h-45.5c-9.4,0-17.1-7.7-17.1-17.1V37.7c0-9.4,7.7-17.1,17.1-17.1h45.5c9.4,0,17.1,7.7,17.1,17.1
			v49.4C-49.8,96.5-57.4,104.2-66.8,104.2z"/>
	</g>
</g>
<g>
	<path class="st0" d="M217.9,99.1c-20.2,0-36.7-16.4-36.8-36.6c-0.1-20.3,16.5-36.9,36.8-36.9c20.3,0,36.7,16.4,36.7,36.6
		C254.7,82.6,238.3,99.1,217.9,99.1z M217.9,28.9c-18.5,0-33.5,15-33.5,33.5c0,18.5,15.1,33.5,33.6,33.5c18.5,0,33.5-15,33.5-33.5
		C251.4,43.9,236.4,28.9,217.9,28.9z"/>
	<path class="st0" d="M244.5,18.8c-15.3-8.8-30.8-9.9-46.9-3.3c-0.5-0.9-0.9-1.7-1.5-2.8c6.2-2.8,12.5-4.2,19.2-4.5
		c10.7-0.5,20.7,2,30,7.3c0.7,0.4,2.2,0.3,2.9-0.1c6-3.7,13.8-1.9,17.3,4.1c3.4,5.9,1.1,13.6-5,16.8c-6,3.2-13.7,0.6-16.6-5.6
		C242,26.8,242.5,22.9,244.5,18.8z M254.8,34.4c4.9,0,9-4,9-8.9c0-4.9-4.2-9-9-9c-4.7,0-8.8,4.1-8.9,8.8
		C245.8,30.2,249.9,34.4,254.8,34.4z"/>
	<path class="st0" d="M264.9,42c0.5-0.3,0.9-0.6,1.4-0.9c0.4-0.2,0.8-0.2,1.5-0.4c7,17.5,5.7,34.2-3.7,50.3
		c3.9,5.7,4.4,12.4-1.5,17.6c-4.3,3.8-10.9,3.7-15.4,0.1c-4.5-3.7-5.8-10.2-3.1-15.1c3.4-6,8.9-7.6,17.4-4.9c4.4-7,6.7-14.7,7.4-23
		C269.6,57.6,267.9,49.7,264.9,42z M254.9,90.4c-4.9,0-9,4-9,8.9c0,4.8,4.2,9,9,9c4.7,0,8.8-4.1,8.9-8.8
		C263.9,94.6,259.8,90.4,254.9,90.4z"/>
	<path class="st0" d="M171,82.9c-1.1,0.4-1.8,0.8-2.8,1.2c-2.3-5.2-3.8-10.4-4.3-15.9c-1.1-11.7,1.1-22.7,7-32.8
		c0.8-1.3,0.6-2.2-0.1-3.5c-3.2-5.1-2.3-11.6,2.1-15.4c4.5-3.9,11-4.2,15.6-0.6c4.6,3.6,6,10.1,3.3,15.3c-2.7,5.2-8.9,7.6-14.7,5.7
		c-0.8-0.3-1.6-0.6-2.7-1C165.5,51,164.6,66.5,171,82.9z M189.9,25.4c0-4.9-4.2-9-9.1-8.9c-4.7,0.1-8.8,4.2-8.8,8.9c0,4.9,4.1,9,9,9
		C185.9,34.4,190,30.3,189.9,25.4z"/>
	<path class="st0" d="M191.4,106c12.9,7.5,26.3,9.5,40.7,5.5c0.3,0.5,0.6,1,0.7,1.4c0.1,0.4,0.2,0.8,0.4,2
		c-4.2,0.6-8.4,1.5-12.6,1.7c-10.6,0.7-20.5-1.8-29.7-7.1c-1.4-0.8-2.3-0.8-3.7,0.1c-5,3.2-11.6,2.2-15.4-2.2
		c-4-4.5-4.1-11.1-0.3-15.8c3.5-4.4,10.2-5.7,15.1-3c5.3,2.9,7.6,9,5.6,14.8C192.1,104.2,191.8,105,191.4,106z M189.9,99.3
		c0-4.9-4-8.9-9-8.9c-4.8,0-8.8,4-8.9,8.8c-0.1,4.8,4.1,9.1,8.9,9.1C185.8,108.3,189.9,104.2,189.9,99.3z"/>
	<path class="st0" d="M239.6,112.1c-0.9,0.4-1.6,0.7-2.5,1.1c-0.4-1-0.8-1.8-1.3-2.8c0.8-0.4,1.5-0.8,2.5-1.3
		C238.8,110.2,239.2,111.1,239.6,112.1z"/>
	<path class="st0" d="M188.2,62.5c0-16.4,13.2-29.7,29.6-29.8c16.5,0,29.9,13.3,29.8,29.8c0,16.3-13.3,29.6-29.4,29.6
		C201.6,92.1,188.3,79,188.2,62.5z M244.4,63.1c0.6-14.5-11.2-26.7-26.2-27.2c-14.1-0.5-26.3,11.3-26.9,25.7
		c-0.5,14.6,11,27,26,27.3C232.4,89.1,243.9,77.5,244.4,63.1z"/>
	<path class="st0" d="M249.8,25.4c0-2.9,2.4-5.2,5.2-5.1c2.8,0.1,5,2.6,4.9,5.4c-0.1,2.7-2.3,4.8-5.1,4.8
		C251.9,30.5,249.8,28.4,249.8,25.4z M254.9,28.1c0.8-1.3,1.7-2,1.7-2.7c-0.1-0.7-1.1-1.7-1.7-1.7c-0.6,0-1.6,1.1-1.7,1.7
		C253.1,26.2,254,26.9,254.9,28.1z"/>
	<path class="st0" d="M249.8,99.4c0-3,2.1-5.1,5-5.1c2.8,0,5,2.1,5.1,4.9c0.1,2.8-2.1,5.2-4.9,5.3
		C252.2,104.5,249.9,102.2,249.8,99.4z M257.4,99.6c-1.1-1-1.7-2-2.3-2c-0.7,0-1.4,0.8-2.1,1.3c0.5,0.7,1,1.8,1.7,2
		C255.2,101.2,256.1,100.3,257.4,99.6z"/>
	<path class="st0" d="M181,30.5c-2.9,0-5.2-2.3-5.1-5.1c0.1-2.7,2.4-5,5-5.1c2.7-0.1,5.2,2.4,5.2,5.1
		C186.2,28.3,183.9,30.6,181,30.5z M181.2,22.8c-1,1.2-1.9,1.9-1.9,2.5c0,0.7,1,1.3,1.6,2c0.6-0.6,1.7-1.1,1.8-1.7
		C182.8,25,182,24.2,181.2,22.8z"/>
	<path class="st0" d="M181,104.4c-2.7,0-5.1-2.5-5.1-5.3c0.1-2.7,2.3-4.9,5.1-4.9c2.9,0,5.2,2.2,5.2,5.1
		C186.1,102,183.7,104.5,181,104.4z M183.7,99.3c-1.3-0.9-2-1.8-2.7-1.7c-0.7,0.1-1.2,1.1-1.9,1.7c0.6,0.6,1.2,1.6,1.8,1.7
		C181.6,101.1,182.4,100.2,183.7,99.3z"/>
	<g>
		<g>
			<g class="st3">
				<path class="st0" d="M212.1,70.8V53.9h7.5c2.9,0,4.7,1.8,4.7,4.3c0,2.1-1.4,3.6-3,3.9c1.8,0.3,3.3,2.1,3.3,4.2
					c0,2.7-1.8,4.6-4.9,4.6H212.1z M222.2,58.5c0-1.5-1-2.7-2.9-2.7h-5.1v5.5h5.1C221.1,61.3,222.2,60.1,222.2,58.5z M222.5,66.1
					c0-1.5-1.1-2.9-3.1-2.9h-5.2V69h5.2C221.3,69,222.5,67.9,222.5,66.1z"/>
			</g>
		</g>
		<g>
			<g class="st3">
				<path class="st0" d="M239,70.8l-9.9-13.5v13.5H227V53.9h2.2l9.7,13.2V53.9h2.1v16.9H239z"/>
			</g>
		</g>
		<g>
			<polygon class="st0" points="204.2,62.1 210.4,53.9 207.8,53.9 202.8,60.7 197.8,53.9 195.2,53.9 201.5,62.2 194.9,70.8 
				202.8,63.6 210.8,70.8 			"/>
		</g>
		<g>
			<g>
				<g>
					<polygon class="st0" points="205.3,67.1 202.8,65 200.4,67.1 					"/>
				</g>
				<g>
					<polygon class="st0" points="199.5,67.9 197.4,69.7 208.3,69.7 206.2,67.9 					"/>
				</g>
			</g>
		</g>
	</g>
</g>
<g>
	<g>
		<path class="st1" d="M78.6,48.4c-2.2,1.3-4.3,2.5-6.4,3.8c-3.1,1.8-6.2,3.7-9.3,5.5c-0.3,0.2-0.6,0.2-0.9,0
			c-3.5-2.1-7.1-4.2-10.6-6.3c-1.7-1-3.5-2.1-5.3-3.1c5.4-8.9,10.7-17.8,16.2-26.8c0.2,0.2,0.3,0.4,0.4,0.5c1.7,2.8,3.4,5.5,5.1,8.3
			c3.1,5.1,6.1,10.1,9.2,15.2C77.6,46.5,78.1,47.5,78.6,48.4z M62.9,23.9c0,0.2,0,0.4,0,0.5c0,5.4,0,10.8,0,16.2
			c0,0.3,0.1,0.5,0.4,0.6c4.1,1.9,8.2,3.7,12.4,5.6c0.4,0.2,0.9,0.4,1.4,0.6C72.3,39.6,67.6,31.8,62.9,23.9z M47.9,47.4
			c0.2-0.1,0.3-0.1,0.4-0.2c4.4-2,8.9-4,13.3-6c0.3-0.2,0.4-0.4,0.4-0.7c0-5.4,0-10.7,0-16.1c0-0.1,0-0.2,0-0.4
			C57.2,31.9,52.6,39.6,47.9,47.4z M61.9,42c-4.7,2.1-9.4,4.3-14.1,6.4c4.7,2.8,9.4,5.6,14.1,8.3C61.9,51.8,61.9,46.9,61.9,42z
			 M62.9,56.7c4.7-2.8,9.3-5.5,14-8.3c-4.7-2.2-9.4-4.3-14-6.5C62.9,46.9,62.9,51.8,62.9,56.7z"/>
		<path class="st1" d="M78.2,51.3C72.9,58.7,67.7,66,62.4,73.5C57.2,66.1,52,58.7,46.7,51.2c0.2,0.1,0.3,0.1,0.4,0.2
			c4.7,2.8,9.4,5.5,14,8.3c1,0.6,1.7,0.6,2.6,0c4.3-2.6,8.6-5.2,12.9-7.8C77.2,51.7,77.6,51.5,78.2,51.3
			C78.1,51.3,78.1,51.3,78.2,51.3z M61.8,71.2c0,0,0.1,0,0.1,0c0-0.1,0-0.1,0-0.2c0-3.1,0-6.2,0-9.3c0-0.3-0.1-0.5-0.4-0.6
			c-3.7-2.1-7.4-4.3-11.1-6.4c-0.2-0.1-0.4-0.2-0.6-0.4c0,0,0,0,0,0.1C53.8,59.9,57.8,65.5,61.8,71.2z M75,54.2
			c-0.1,0-0.2,0-0.2,0.1c-3.9,2.3-7.7,4.5-11.6,6.8c-0.3,0.2-0.4,0.4-0.4,0.7c0,3.1,0,6.1,0,9.2c0,0.1,0,0.2,0,0.3
			C67,65.6,71,59.9,75,54.2z"/>
	</g>
	<path class="st0" d="M25,69.1c-12.4-23.9-1.9-45.9,11.8-56.1C51.5,2,72.9,1.8,87.9,12.8c13.2,9.7,24.7,31.6,12,56.3
		c4.5,1.1,8.9,2.2,13.3,3.4c1.5,0.4,3.1,0.7,4.3,1.5c3.8,2.5,3.9,6.5,0.4,10.9c3.5,5.6,3.4,6.7-0.1,11.5c0.3,0.4,0.7,0.8,1.1,1.3
		c3.1,3.9,1.7,8.9-3,10.4c-4.3,1.4-8.7,2.3-13.1,3.4c-8.9,2.2-17.9,4.2-26.7,6.8c-9,2.6-17.8,2.6-26.8,0.1
		c-12.5-3.5-25.2-6.4-37.9-9.6c-7.4-1.9-8.8-6.4-4.2-12.4c-3.6-4.4-3.6-6.8,0-11.3c-0.5-0.6-1.1-1.2-1.5-1.9C3,79.1,5,74.1,9.8,72.9
		C14.8,71.6,19.8,70.4,25,69.1z M96.9,98c5.3-1.3,10.4-2.6,15.5-3.9c2.2-0.6,4.9-0.8,4.4-4.1c-0.3-2-3.6-3.6-6.4-3.1
		c-0.3,0-0.6,0.2-0.8,0.2c-12.7,3.2-25.5,6.3-38.1,9.6c-6,1.5-11.9,1.6-17.9,0c-9.9-2.6-19.9-5-29.8-7.5c-3-0.7-5.9-1.5-8.9-2.2
		C12,86.4,8.5,87.8,8,89.8c-0.5,2.1,0.7,3.3,4.6,4.3c12.3,3.1,24.8,5.9,37,9.4c9,2.6,17.7,2.5,26.5-0.3c5.5-1.7,11.1-2.8,16.6-4.2
		c1.2,2.1,1.4,3.3-1.4,4c-7.4,1.7-14.7,3.7-22,5.4c-5,1.2-10,1-15.1-0.3c-12.8-3.3-25.6-6.4-38.5-9.6c-1.3-0.3-2.8-0.2-4.2,0
		c-1.9,0.2-3.6,1-3.6,3.3c0,2.3,1.8,2.9,3.7,3.3c13.5,3.4,26.9,6.7,40.4,10.2c6.9,1.8,13.8,1.9,20.7,0c7.5-2,15-3.8,22.6-5.7
		c6.2-1.6,12.5-3,18.6-4.8c1.2-0.3,2.9-2,2.8-2.9c-0.1-1.2-1.5-2.8-2.8-3.2c-1.5-0.6-3.4-0.5-5-0.2c-3.7,0.7-7.4,1.8-11.3,2.7
		C97.4,100,97.2,99.2,96.9,98z M62.4,87c21.7,0,39.4-17.6,39.5-39.2c0.1-22.1-17.5-39.9-39.4-39.9c-21.8,0-39.6,17.8-39.6,39.5
		C22.9,69.2,40.6,87,62.4,87z M62.4,94.7c0-0.1,0-0.2,0.1-0.2c1.5-0.1,3.1,0,4.6-0.4c15.6-3.8,31.2-7.7,46.8-11.6
		c1.7-0.4,3.5-1.3,2.9-3.2c-0.4-1.2-1.8-2.7-3.1-3.1c-4.5-1.4-9.1-2.3-13.6-3.6c-1.7-0.5-2.7-0.2-3.8,1.3c-17.8,22-50,22-67.6,0
		c-1-1.3-1.9-1.8-3.6-1.3c-4.3,1.2-8.7,2.2-13.1,3.3c-1.9,0.5-3.9,0.9-4,3.4c-0.1,2.6,2,3,3.9,3.4c13.9,3.5,27.9,7,41.8,10.4
		C56.5,93.8,59.5,94.2,62.4,94.7z"/>
	<path class="st0" d="M97.8,47.7C97.7,67.1,81.9,83,62.4,83C42.8,83,26.9,66.9,27,47.1C27.1,27.6,43.1,11.9,62.8,12
		C82.2,12.1,97.9,28.1,97.8,47.7z M62.4,79.3c17.8,0,32.1-14.1,32.1-31.8c0-17.6-14.4-32.1-32-32.1c-17.6,0-32.1,14.5-32.1,32
		C30.3,65.1,44.6,79.3,62.4,79.3z"/>
</g>
</svg>
