<?xml version="1.0" encoding="UTF-8"?>
<svg enable-background="new 0 0 105 125" version="1.1" viewBox="0 0 105 125" xml:space="preserve" xmlns="http://www.w3.org/2000/svg">
<style type="text/css">
	.st0{opacity:0.9;}
	.st1{fill:#FFFFFF;}
	.st2{fill:none;stroke:#FFFFFF;stroke-width:3;stroke-miterlimit:10;}
</style>
			<g class="st0">
				<path class="st1" d="m42.9 76.4v-27.8h12.4c4.8 0 7.8 2.9 7.8 7.1 0 3.5-2.3 5.8-4.9 6.4 3 0.5 5.4 3.5 5.4 6.8 0 4.5-3 7.5-8 7.5h-12.7zm16.5-20.2c0-2.5-1.7-4.5-4.8-4.5h-8.3v9h8.3c3.2-0.1 4.8-2 4.8-4.5zm0.6 12.3c0-2.5-1.8-4.8-5.1-4.8h-8.5v9.6h8.5c3.2 0 5.1-1.8 5.1-4.8z"/>
			</g>
			<g class="st0">
				<path class="st1" d="M87.1,76.4L70.9,54.2v22.2h-3.5V48.6h3.5l16,21.7V48.6h3.5v27.8H87.1z"/>
			</g>
			<polygon class="st1" points="29.9 62.1 40.1 48.6 35.9 48.6 27.7 59.7 19.4 48.6 15.2 48.6 25.4 62.1 14.6 76.4 27.7 64.6 40.8 76.4"/>
					<polygon class="st1" points="31.7 70.3 27.7 66.7 23.7 70.3"/>
					<polygon class="st1" points="22.2 71.6 18.8 74.6 36.6 74.6 33.2 71.6"/>
	<polygon class="st2" points="102.5 91.4 102.5 33.6 52.5 4.8 2.5 33.6 2.5 91.4 52.5 120.2"/>
</svg>
